<?xml version="1.0" encoding="UTF-8" standalone="no"?>
<!DOCTYPE svg PUBLIC "-//W3C//DTD SVG 1.1//EN" "http://www.w3.org/Graphics/SVG/1.1/DTD/svg11.dtd">
<svg width="595,2pt" height="841,92pt" viewBox="0 0 595.2 841.92" overflow="visible" version="1.1" xmlns="http://www.w3.org/2000/svg">


  <path id="A1" d="M232.288,276.5276 L221.7601,248.4532 L42.23028,378.8892 L76.20524,389.9283 z" stroke="#000000" stroke-width="0.24"  />
  <path id="A2" d="M372.4526,276.5276 L382.9806,248.4532 L562.5103,378.8892 L528.5354,389.9283 z" stroke="#000000" stroke-width="0.24" fill-opacity="0"/>
  <path id="A3" d="M444.9974,647.0318 L465.9951,675.9326 L559.6609,387.6588 L525.686,398.6979 z" stroke="#000000" stroke-width="0.24" fill-opacity="0" />
  <path id="A4" d="M432.9272,655.8013 L171.8135,655.8013 L150.8158,684.7021 L453.9248,684.7021 z" stroke="#000000" stroke-width="0.24" fill-opacity="0" />
  <path id="A5" d="M79.05463,398.6979 L45.07968,387.6588 L138.7455,675.9326 L159.7432,647.0318 z" stroke="#000000" stroke-width="0.24"  fill-opacity="0" />
  
  <path id="B1" d="M111.2835,401.326 L78.41185,390.6453 L232.9717,278.351 L243.1578,305.5137 z" stroke="#000000" stroke-width="0.24" fill-opacity="0" />
  <path id="B2" d="M361.5829,305.5137 L371.7689,278.351 L526.3287,390.6453 L493.4571,401.326 z" stroke="#000000" stroke-width="0.24" fill-opacity="0" />
  <path id="B3" d="M523.4794,399.4149 L490.6077,410.0955 L423.3178,617.1924 L443.6336,645.1547 z" stroke="#000000" stroke-width="0.24"  fill-opacity="0" />
  <path id="B4" d="M173.1772,653.9243 L193.493,625.962 L411.2476,625.962 L431.5634,653.9243 z" stroke="#000000" stroke-width="0.24" fill-opacity="0" />
  <path id="B5" d="M161.107,645.1547 L181.4228,617.1924 L114.1329,410.0955 L81.26125,399.4149 z" stroke="#000000" stroke-width="0.24" fill-opacity="0"/>
  
  <path id="C1" d="M113.4901,402.0429 L146.3618,412.7236 L254.0275,334.4998 L243.8415,307.3371 z" stroke="#000000" stroke-width="0.24" fill-opacity="0" />
  <path id="C2" d="M350.7131,334.4998 L360.8991,307.3371 L491.2505,402.0429 L458.3788,412.7236 z" stroke="#000000" stroke-width="0.24"  fill-opacity="0"/>
  <path id="C3" d="M488.4011,410.8125 L455.5294,421.4931 L401.6383,587.353 L421.9541,615.3154 z" stroke="#000000" stroke-width="0.24"  fill-opacity="0" />
  <path id="C4" d="M194.8568,624.0849 L215.1726,596.1226 L389.568,596.1226 L409.8838,624.0849 z" stroke="#000000" stroke-width="0.24" fill-opacity="0" />
  <path id="C5" d="M182.7865,615.3154 L203.1023,587.353 L149.2112,421.4931 L116.3395,410.8125 z" stroke="#000000" stroke-width="0.24" fill-opacity="0" />
  
  <path id="D1" d="M181.44,424.1212 L148.5684,413.4406 L254.7113,336.3232 L264.8973,363.4859 z" stroke="#000000" stroke-width="0.24" fill-opacity="0" />
  <path id="D2" d="M339.8433,363.4859 L350.0293,336.3232 L456.1722,413.4406 L423.3006,424.1212 z" stroke="#000000" stroke-width="0.24" fill-opacity="0" />
  <path id="D3" d="M453.3228,422.2101 L420.4512,432.8908 L379.9587,557.5137 L400.2745,585.476 z" stroke="#000000" stroke-width="0.24" fill-opacity="0"/>
  <path id="D4" d="M216.5364,594.2455 L236.8521,566.2833 L367.8885,566.2833 L388.2043,594.2455 z" stroke="#000000" stroke-width="0.24" fill-opacity="0" />
  <path id="D5" d="M204.4661,585.476 L224.7819,557.5137 L184.2894,432.8908 L151.4178,422.2101 z" stroke="#000000" stroke-width="0.24" fill-opacity="0"/>

  <path id="E1" d="M183.6466,424.8382 L216.5183,435.5188 L275.7671,392.472 L265.5811,365.3093 z" stroke="#000000" stroke-width="0.24"  fill-opacity="0"/>
  <path id="E2" d="M328.9735,392.472 L339.1595,365.3093 L421.094,424.8382 L388.2223,435.5188 z" stroke="#000000" stroke-width="0.24" fill-opacity="0" />
  <path id="E3" d="M418.2446,433.6077 L385.3729,444.2884 L358.2792,527.6744 L378.595,555.6367 z" stroke="#000000" stroke-width="0.24" fill-opacity="0" />
  <path id="E4" d="M238.2159,564.4062 L258.5317,536.4439 L346.2089,536.4439 L366.5247,564.4062 z" stroke="#000000" stroke-width="0.24" fill-opacity="0" />
  <path id="E5" d="M226.1456,555.6367 L246.4614,527.6744 L219.3677,444.2884 L186.496,433.6077 z" stroke="#000000" stroke-width="0.24" fill-opacity="0" />
  
  <path id="F1" d="M290.1468,430.8178 C280.6018,434.1821 272.1968,442.9706 269.2616,452.6561 L218.7249,436.2358 L276.4509,394.2954 z" stroke="#000000" stroke-width="0.24" fill-opacity="0" />
  <path id="F2" d="M335.479,452.6561 C332.5438,442.9706 324.1388,434.1821 314.5938,430.8178 L328.2897,394.2954 L386.0157,436.2358 z" stroke="#000000" stroke-width="0.24" fill-opacity="0" />
  <path id="F3" d="M328.3924,486.5388 C334.6988,479.6594 338.0735,469.2731 337.0151,460.0007 L383.1663,445.0053 L356.9154,525.7972 z" stroke="#000000" stroke-width="0.24" fill-opacity="0" />
  <path id="F4" d="M288.4184,495.3083 C296.9099,499.1802 307.8307,499.1802 316.3221,495.3083 L344.8451,534.5668 L259.8954,534.5668 z" stroke="#000000" stroke-width="0.24" fill-opacity="0"/>
  <path id="F5" d="M267.7254,460.0007 C266.667,469.2731 270.0417,479.6594 276.3481,486.5388 L247.8252,525.7972 L221.5743,445.0053 z" stroke="#000000" stroke-width="0.24" fill-opacity="0" />
  

  <path id="K4" d="M359.5624,248.8773 C359.6549,245.3972 358.0755,241.2106 355.1925,238.3275 C352.3095,235.4445 348.1228,233.8651 344.6427,233.9577 C341.1626,233.8651 336.9759,235.4445 334.0929,238.3275 C331.2099,241.2106 329.6305,245.3972 329.723,248.8773 C329.6305,252.3575 331.2099,256.5441 334.0929,259.4272 C336.9759,262.3102 341.1626,263.8895 344.6427,263.797 C348.1228,263.8895 352.3095,262.3102 355.1925,259.4272 C358.0755,256.5441 359.6549,252.3575 359.5624,248.8773 z" stroke="#000000" stroke-width="0.24" fill-opacity="0" />
  <path id="K2" d="M245.1782,248.8773 C245.0857,245.3972 246.665,241.2106 249.5481,238.3275 C252.4311,235.4445 256.6177,233.8651 260.0979,233.9577 C263.578,233.8651 267.7646,235.4445 270.6477,238.3275 C273.5307,241.2106 275.11,245.3972 275.0175,248.8773 C275.11,252.3575 273.5307,256.5441 270.6477,259.4272 C267.7646,262.3102 263.578,263.8895 260.0979,263.797 C256.6177,263.8895 252.4311,262.3102 249.5481,259.4272 C246.665,256.5441 245.0857,252.3575 245.1782,248.8773 z" stroke="#000000" stroke-width="0.24" fill-opacity="0" />
  <path id="K1" d="M317.2899,212.2659 C317.3825,208.7858 315.8031,204.5991 312.9201,201.7161 C310.0371,198.8331 305.8504,197.2537 302.3703,197.3462 C298.8902,197.2537 294.7035,198.8331 291.8205,201.7161 C288.9375,204.5991 287.3581,208.7858 287.4506,212.2659 C287.3581,215.746 288.9375,219.9327 291.8205,222.8157 C294.7035,225.6987 298.8902,227.2781 302.3703,227.1856 C305.8504,227.2781 310.0371,225.6987 312.9201,222.8157 C315.8031,219.9327 317.3825,215.746 317.2899,212.2659 z" stroke="#000000" stroke-width="0.24"  fill-opacity="0" />
  <path id="K5" d="M317.2899,321.6769 C317.3825,318.1967 315.8031,314.0101 312.9201,311.1271 C310.0371,308.244 305.8504,306.6647 302.3703,306.7572 C298.8902,306.6647 294.7035,308.244 291.8205,311.1271 C288.9375,314.0101 287.3581,318.1967 287.4506,321.6769 C287.3581,325.157 288.9375,329.3437 291.8205,332.2267 C294.7035,335.1097 298.8902,336.6891 302.3703,336.5966 C305.8504,336.6891 310.0371,335.1097 312.9201,332.2267 C315.8031,329.3437 317.3825,325.157 317.2899,321.6769 z" stroke="#000000" stroke-width="0.24" fill-opacity="0" />
  <path id="K6" d="M317.2899,359.3994 C317.3825,355.9193 315.8031,351.7326 312.9201,348.8496 C310.0371,345.9666 305.8504,344.3872 302.3703,344.4797 C298.8902,344.3872 294.7035,345.9666 291.8205,348.8496 C288.9375,351.7326 287.3581,355.9193 287.4506,359.3994 C287.3581,362.8795 288.9375,367.0662 291.8205,369.9492 C294.7035,372.8322 298.8902,374.4116 302.3703,374.3191 C305.8504,374.4116 310.0371,372.8322 312.9201,369.9492 C315.8031,367.0662 317.3825,362.8795 317.2899,359.3994 z" stroke="#000000" stroke-width="0.24" fill-opacity="0" />
  <path id="K3" d="M317.2899,285.4888 C317.3825,282.0087 315.8031,277.822 312.9201,274.939 C310.0371,272.0559 305.8504,270.4766 302.3703,270.5691 C298.8902,270.4766 294.7035,272.0559 291.8205,274.939 C288.9375,277.822 287.3581,282.0087 287.4506,285.4888 C287.3581,288.9689 288.9375,293.1555 291.8205,296.0386 C294.7035,298.9216 298.8902,300.501 302.3703,300.4084 C305.8504,300.501 310.0371,298.9216 312.9201,296.0386 C315.8031,293.1555 317.3825,288.9689 317.2899,285.4888 z" stroke="#000000" stroke-width="0.24" fill-opacity="0" />
  <path id="K7" d="M316.6408,404.1133 L302.3703,442.1682 L288.0997,404.1133 C286.3252,399.7141 287.0461,393.9119 289.8433,390.0807 C292.4485,386.1164 297.628,383.4041 302.3703,383.5209 C307.1125,383.4041 312.2921,386.1164 314.8972,390.0807 C317.6944,393.9119 318.4153,399.714 316.6408,404.1133 z" stroke="#000000" stroke-width="0.24" fill-opacity="0" />
  
  
  <path id="MARCO_IN" d="M302.3703,180.6655 L33.46071,376.0398 L136.175,692.162 L468.5656,692.162 L571.2799,376.0398 z" stroke="#000000" stroke-width="0.24" fill-opacity="0" />
  <path id="MARCO_EX" d="M583.1044,379.8818 L480.3901,696.004 C479.1105,700.8017 473.5238,704.8607 468.5656,704.595 L136.175,704.595 C131.2167,704.8607 125.63,700.8017 124.3505,696.004 L21.63614,379.8818 C19.85132,375.2483 21.98525,368.6807 26.15271,365.9812 L295.0623,170.607 C298.9175,167.4777 305.823,167.4777 309.6783,170.607 L578.5878,365.9812 C582.7553,368.6807 584.8892,375.2483 583.1044,379.8818 z" stroke="#000000" stroke-width="0.24" fill-opacity="0" />
  
  
</svg>